<svg width="34" height="35" viewBox="0 0 34 35" fill="none" xmlns="http://www.w3.org/2000/svg">
<mask id="mask0_2726_9599" style="mask-type:luminance" maskUnits="userSpaceOnUse" x="0" y="0" width="34" height="32">
<path fill-rule="evenodd" clip-rule="evenodd" d="M0 0H33.2475V31.3315H0V0Z" fill="white"/>
</mask>
<g mask="url(#mask0_2726_9599)">
<path fill-rule="evenodd" clip-rule="evenodd" d="M5.30723 30.8789C4.1768 27.8913 5.42229 24.6983 7.9711 23.1645C8.48187 22.8566 8.82426 22.3388 8.88881 21.7471C9.04035 20.3594 9.49837 19.0338 10.2067 17.8577C10.0496 17.6517 9.90193 17.4306 9.76722 17.1932C9.76161 17.1837 9.75712 17.1742 9.75207 17.1647C9.5399 16.8551 9.35748 16.5069 9.22053 16.1235C8.58347 14.3355 9.13633 12.5067 10.4559 12.0393C11.7413 11.5836 13.2775 12.5901 13.9449 14.2952C14.0027 14.2868 14.0605 14.2728 14.115 14.2448C14.6729 13.9649 15.2662 13.7343 15.892 13.5647C16.4948 13.4012 17.0993 13.3005 17.6993 13.2562C17.8166 13.2478 17.9194 13.1986 18.0052 13.1303C18.0664 12.8666 18.1444 12.6024 18.2578 12.3399C19.0105 10.5967 20.6629 9.63218 21.9489 10.1841C23.2353 10.7366 23.6675 12.5974 22.9148 14.34C22.9131 14.345 22.9098 14.349 22.9075 14.354C24.1384 15.0095 25.2256 15.9298 26.0754 17.0639C26.4363 17.5448 27.0021 17.8168 27.6038 17.818C29.9646 17.8224 32.1531 19.1463 33.2476 21.2523C33.2094 20.7943 33.1482 20.3387 33.0332 19.8892C32.7486 18.7808 32.2215 17.7357 31.5025 16.8439C31.3684 16.6777 31.2275 16.5164 31.0804 16.3608C30.4451 15.6919 29.6946 15.1315 29.1159 14.4128C27.4315 12.3214 27.5449 9.17931 28.8488 6.83324C29.2344 6.13911 29.7311 5.40634 29.5925 4.62544C29.4673 3.92459 28.8639 3.4191 28.2774 3.01437C21.6834 -1.53166 12.8638 -0.778189 6.82215 4.214C3.43983 7.00902 1.03246 10.9936 0.266304 15.3185C-0.497609 19.63 0.402135 24.2118 2.70622 27.9277C3.2024 28.7277 3.76313 29.4867 4.38616 30.1949C4.73752 30.594 5.11471 30.9685 5.50256 31.3318C5.4324 31.184 5.3656 31.034 5.30723 30.8789" fill="#582BE8"/>
</g>
<path fill-rule="evenodd" clip-rule="evenodd" d="M12.5708 19.9987C11.8041 20.2103 11.3545 21.0018 11.5667 21.7671C11.7789 22.5317 12.5725 22.9801 13.3398 22.7685C14.1065 22.5569 14.5561 21.7654 14.3439 21.0001C14.1318 20.2355 13.3376 19.7871 12.5708 19.9987" fill="#FF1C0C"/>
<path fill-rule="evenodd" clip-rule="evenodd" d="M22.3286 20.2871C23.0953 20.0755 23.5449 19.2839 23.3327 18.5187C23.1205 17.754 22.3269 17.3056 21.5596 17.5172C20.7929 17.7288 20.3433 18.5204 20.5555 19.2856C20.7676 20.0503 21.5619 20.4987 22.3286 20.2871" fill="#FF1C0C"/>
<path fill-rule="evenodd" clip-rule="evenodd" d="M21.3289 28.1751C21.3794 28.3571 21.2677 28.5536 21.0847 28.6039L19.9599 28.9146C19.7769 28.965 19.5805 28.8536 19.53 28.6717L19.2589 27.6366C19.5423 27.6014 19.8246 27.551 20.1047 27.4737C20.4347 27.3825 20.7474 27.2554 21.051 27.1127L21.3289 28.1751ZM23.8064 22.8745C23.5084 22.7793 23.1879 22.9411 23.0913 23.2384C22.6479 24.5998 21.6325 25.6746 20.3253 26.2024L20.016 25.0868C20.4196 24.8338 20.8355 24.3652 20.753 23.4959C20.7322 23.2748 20.5902 23.0805 20.3848 22.9949C20.0306 22.8482 19.4244 22.673 18.816 22.8359C18.2109 23.0077 17.781 23.469 17.5531 23.7763C17.4206 23.9555 17.3987 24.195 17.4953 24.3955C17.8657 25.1674 18.4478 25.3644 18.9193 25.3812L19.2308 26.5025C17.8461 26.7102 16.4339 26.3066 15.3596 25.3728C15.1233 25.1674 14.7641 25.192 14.5592 25.4271C14.3532 25.6628 14.3779 26.0205 14.6136 26.226C15.5987 27.0819 16.8139 27.5706 18.074 27.6652L18.4158 28.9796C18.6369 29.7767 19.4682 30.2464 20.2686 30.0258L21.3934 29.7151C22.1933 29.494 22.6642 28.6655 22.443 27.8678L22.0861 26.5019C23.0498 25.7804 23.7851 24.7711 24.1707 23.5877C24.2672 23.2904 24.105 22.9719 23.8064 22.8745V22.8745Z" fill="#FF1C0C"/>
<path fill-rule="evenodd" clip-rule="evenodd" d="M27.6308 17.837C27.028 17.8353 26.4622 17.5621 26.1013 17.0802C25.2521 15.9444 24.1643 15.0218 22.9328 14.3646C22.9351 14.3596 22.9379 14.3557 22.9401 14.3506C23.6951 12.6069 23.264 10.7439 21.977 10.1897C20.6905 9.63556 19.0347 10.5995 18.2798 12.3438C18.1658 12.6063 18.0878 12.8711 18.0266 13.1348C17.9402 13.2031 17.8375 13.2523 17.7202 13.2607C17.1196 13.3044 16.514 13.4046 15.9106 13.5675C15.2836 13.7371 14.6898 13.9672 14.1307 14.2471C14.0763 14.2745 14.0185 14.2885 13.9607 14.2975C13.2939 12.5896 11.7576 11.5803 10.47 12.0354C9.14874 12.5022 8.59307 14.3322 9.22901 16.1224C9.36596 16.5069 9.54838 16.8557 9.75999 17.1658C9.7656 17.1753 9.77009 17.1849 9.7757 17.1944C9.91041 17.4317 10.058 17.654 10.2146 17.86C9.5046 19.0366 9.04491 20.3628 8.89224 21.7522C8.82713 22.3444 8.48362 22.8628 7.97172 23.1701C5.41899 24.7028 4.169 27.8981 5.29775 30.8901C6.37598 33.749 9.41311 35.453 12.4239 34.8943C14.0342 34.5959 15.3706 33.735 16.2906 32.5661C16.4747 32.3327 16.766 32.2118 17.0607 32.2543C18.3146 32.434 19.6252 32.3685 20.9257 32.017C22.2413 31.661 23.4167 31.0474 24.4152 30.2475C24.6493 30.0594 24.9658 30.0169 25.2448 30.1277C26.6317 30.6808 28.2252 30.7563 29.771 30.2061C32.6678 29.1744 34.4353 26.1571 33.9071 23.1354C33.3548 19.9732 30.6292 17.8454 27.6308 17.837" fill="white"/>
<path fill-rule="evenodd" clip-rule="evenodd" d="M14.2989 21.0443C14.5178 21.8118 14.0722 22.6106 13.3026 22.8295C12.5331 23.0478 11.7322 22.6027 11.5127 21.8358C11.2938 21.0684 11.74 20.269 12.509 20.0507C13.2785 19.8324 14.08 20.2768 14.2989 21.0443" fill="#582BE8"/>
<path fill-rule="evenodd" clip-rule="evenodd" d="M23.3165 18.4828C23.5354 19.2502 23.0897 20.0491 22.3202 20.2679C21.5507 20.4863 20.7497 20.0412 20.5303 19.2743C20.3114 18.5068 20.7576 17.7075 21.5266 17.4892C22.2961 17.2708 23.0976 17.7153 23.3165 18.4828" fill="#582BE8"/>
<path fill-rule="evenodd" clip-rule="evenodd" d="M20.2988 30.0111L21.409 29.696C22.1993 29.4715 22.659 28.648 22.4339 27.8604L21.9888 26.199C21.9018 25.8961 21.5858 25.7209 21.2822 25.8071C20.9785 25.8933 20.8023 26.2085 20.8887 26.5113L21.3344 28.1728C21.3854 28.3525 21.2766 28.5478 21.0958 28.5988L19.9856 28.9145C19.8049 28.9654 19.6095 28.8568 19.5579 28.6771L19.1128 27.0157C19.0264 26.7129 18.7098 26.5376 18.4061 26.6238C18.1025 26.7101 17.9268 27.0252 18.0132 27.3281L18.4583 28.9895C18.6834 29.7771 19.5091 30.2356 20.2988 30.0111" fill="#582BE8"/>
<path fill-rule="evenodd" clip-rule="evenodd" d="M20.1172 27.423C18.215 27.9632 16.1809 27.517 14.6767 26.229C14.4415 26.0274 14.4145 25.6737 14.616 25.4391C14.8175 25.2051 15.1728 25.1782 15.408 25.3792C16.6249 26.4215 18.2706 26.7826 19.8096 26.3454C21.3476 25.9088 22.5555 24.7371 23.0404 23.2111C23.1336 22.9167 23.4496 22.7538 23.7448 22.8462C24.0412 22.9402 24.204 23.2542 24.1108 23.5493C23.5113 25.4346 22.0183 26.8828 20.1172 27.423" fill="#582BE8"/>
<path fill-rule="evenodd" clip-rule="evenodd" d="M20.0171 27.1448C19.7191 27.2293 19.4081 27.0569 19.3233 26.7596L18.743 24.7271C18.6577 24.4298 18.8305 24.1197 19.1291 24.0352C19.4272 23.9506 19.7381 24.123 19.8229 24.4203L20.4033 26.4529C20.4886 26.7501 20.3151 27.0602 20.0171 27.1448" fill="#582BE8"/>
<path fill-rule="evenodd" clip-rule="evenodd" d="M20.7448 23.4853C20.8755 24.77 19.9146 25.2016 19.506 25.3264L18.7954 22.837C19.4044 22.6691 20.0145 22.8404 20.3709 22.9854C20.5781 23.0693 20.7223 23.2636 20.7448 23.4853" fill="#582BE8"/>
<path fill-rule="evenodd" clip-rule="evenodd" d="M17.5344 23.7908C17.7606 23.4807 18.1888 23.0144 18.7956 22.8369L19.5062 25.3263C19.0931 25.4349 18.0485 25.5732 17.4811 24.4122C17.3828 24.2118 17.403 23.971 17.5344 23.7908" fill="#582BE8"/>
</svg>
