<svg width="13" height="13" viewBox="0 0 13 13" fill="none" xmlns="http://www.w3.org/2000/svg"><path d="M6.76405 1.70708C6.60968 1.25777 6.3578 1.25858 6.20505 1.70871L5.3438 4.24777C5.19024 4.6979 4.69786 5.19027 4.24774 5.34383L1.72736 6.20102C1.27724 6.35377 1.27643 6.60727 1.72493 6.76327L4.23068 7.63508C4.67918 7.79108 5.17318 8.28671 5.32755 8.73602L6.2018 11.2775C6.35618 11.7268 6.60643 11.726 6.75836 11.2759L7.6123 8.74496C7.76424 8.29483 8.2558 7.80083 8.70511 7.64727L11.2653 6.76977C11.7146 6.61621 11.7146 6.36596 11.2645 6.21402L8.74493 5.3609C8.2948 5.20896 7.79999 4.7174 7.64561 4.26808L6.76405 1.70708Z" fill="#5B6CFF"/><path d="M11.2182 1.41617C11.1743 1.28779 11.102 1.28779 11.0581 1.41617L10.812 2.14254C10.7834 2.21298 10.741 2.27697 10.6873 2.33071C10.6336 2.38444 10.5696 2.42683 10.4991 2.45535L9.77926 2.69992C9.65089 2.74379 9.65008 2.8161 9.77926 2.86079L10.4943 3.11023C10.5647 3.13932 10.6287 3.18209 10.6825 3.23606C10.7364 3.29003 10.779 3.35413 10.8079 3.42467L11.0573 4.15104C11.102 4.27942 11.1735 4.2786 11.2166 4.15023L11.4603 3.4271C11.4888 3.35651 11.5311 3.29237 11.5848 3.23849C11.6386 3.18461 11.7026 3.14209 11.7731 3.11348L12.5044 2.86323C12.6328 2.81854 12.6328 2.74704 12.5044 2.70398L11.7845 2.46023C11.7139 2.4319 11.6497 2.38969 11.5957 2.3361C11.5417 2.28251 11.499 2.21862 11.4701 2.14823L11.2182 1.41698V1.41617Z" fill="#5B6CFF"/></svg>
