<svg width="36" height="36" viewBox="0 0 36 36" fill="none" xmlns="http://www.w3.org/2000/svg"><path d="M13.995 27L13.995 27.9H13.995V27ZM10.995 24H10.095H10.995ZM10.995 13V12.1H10.095V13H10.995ZM24.995 13H25.895V12.1H24.995V13ZM24.995 24H24.095C24.095 25.1598 23.1548 26.1 21.995 26.1V27V27.9C24.1489 27.9 25.895 26.1539 25.895 24H24.995ZM21.995 27V26.1H13.995V27V27.9H21.995V27ZM13.995 27L13.9951 26.1C12.8353 26.0999 11.895 25.1596 11.895 24H10.995H10.095C10.095 26.1539 11.8413 27.8998 13.995 27.9L13.995 27ZM10.995 24H11.895V13H10.995H10.095V24H10.995ZM10.995 13V13.9H24.995V13V12.1H10.995V13ZM24.995 13H24.095V24H24.995H25.895V13H24.995Z" fill="#99A1AF"/><path d="M8 12.9C8 13.3971 8.40294 13.8 8.9 13.8L27.1 13.8C27.5971 13.8 28 13.3971 28 12.9C28 12.4029 27.5971 12 27.1 12H8.9C8.40294 12 8 12.4029 8 12.9Z" fill="#99A1AF"/><path d="M13 9.4C13 9.89706 13.4029 10.3 13.9 10.3H22.1C22.5971 10.3 23 9.89706 23 9.4C23 8.90295 22.5971 8.5 22.1 8.5H13.9C13.4029 8.5 13 8.90295 13 9.4Z" fill="#99A1AF"/><path d="M15.9 23C16.397 23 16.8 22.5971 16.8 22.1V16.9C16.8 16.4029 16.397 16 15.9 16C15.4029 16 15 16.4029 15 16.9V22.1C15 22.5971 15.4029 23 15.9 23Z" fill="#99A1AF"/><path d="M20.3 23C20.7971 23 21.2 22.5971 21.2 22.1V16.9C21.2 16.4029 20.7971 16 20.3 16C19.8029 16 19.4 16.4029 19.4 16.9V22.1C19.4 22.5971 19.8029 23 20.3 23Z" fill="#99A1AF"/></svg>
