<svg width="22" height="20" viewBox="0 0 22 20" fill="none" xmlns="http://www.w3.org/2000/svg"><path d="M15.4968 0.899994L15.4969 -6.07967e-06H15.4968V0.899994ZM20.4968 5.89999H21.3968V5.89999H20.4968ZM20.4968 13.9H21.3968V13.9H20.4968ZM15.4968 18.9V19.8H15.4969L15.4968 18.9ZM1.18823 18.9L1.18806 19.8H1.18823V18.9ZM0.986084 18.4107L1.62248 19.0471L1.62252 19.0471L0.986084 18.4107ZM2.49683 5.89999H1.59683V5.89999H2.49683ZM15.4968 0.899994L15.4968 1.79999C17.7611 1.80016 19.5968 3.63582 19.5968 5.89999H20.4968H21.3968C21.3968 2.64157 18.7551 0.000239909 15.4969 -6.07967e-06L15.4968 0.899994ZM20.4968 5.89999H19.5968V13.9H20.4968H21.3968V5.89999H20.4968ZM20.4968 13.9H19.5968C19.5968 16.1642 17.7611 17.9998 15.4968 18L15.4968 18.9L15.4969 19.8C18.7551 19.7997 21.3968 17.1584 21.3968 13.9H20.4968ZM15.4968 18.9V18H1.18823V18.9V19.8H15.4968V18.9ZM1.18823 18.9L1.1884 18C1.73786 18.0001 2.00677 18.6628 1.62248 19.0471L0.986084 18.4107L0.349688 17.7743C-0.395623 18.5197 0.12808 19.7998 1.18806 19.8L1.18823 18.9ZM0.986084 18.4107L1.62252 19.0471C2.75846 17.911 3.39683 16.3699 3.39683 14.7633H2.49683H1.59683C1.59683 15.8925 1.14811 16.9758 0.349646 17.7744L0.986084 18.4107ZM2.49683 14.7633H3.39683V5.89999H2.49683H1.59683V14.7633H2.49683ZM2.49683 5.89999H3.39683C3.39683 3.63563 5.23246 1.79999 7.49683 1.79999V0.899994V-6.07967e-06C4.23835 -6.07967e-06 1.59683 2.64151 1.59683 5.89999H2.49683ZM7.49683 0.899994V1.79999H15.4968V0.899994V-6.07967e-06H7.49683V0.899994Z" fill="#99A1AF"/><path d="M11.5006 6.5C11.9423 6.5 12.3002 6.85816 12.3004 7.2998V9.10059H14.1012C14.5428 9.10086 14.901 9.45873 14.901 9.90039C14.9009 10.342 14.5427 10.6999 14.1012 10.7002H12.3004V12.5C12.3004 12.9418 11.9424 13.2998 11.5006 13.2998C11.0588 13.2998 10.7008 12.9418 10.7008 12.5V10.7002H8.901C8.45924 10.7002 8.1013 10.3421 8.1012 9.90039C8.1012 9.45856 8.45917 9.10059 8.901 9.10059H10.7008V7.2998C10.701 6.85818 11.0589 6.50003 11.5006 6.5Z" fill="#99A1AF"/></svg>
