<svg width="26" height="26" viewBox="0 0 26 26" fill="none" xmlns="http://www.w3.org/2000/svg"><path d="M15.9504 17.0777H10.0851C9.74999 17.0777 9.47577 16.806 9.47577 16.4684C9.47577 16.1307 9.74745 15.859 10.0851 15.859H15.9504C16.2855 15.859 16.5598 16.1307 16.5598 16.4684C16.5598 16.806 16.2881 17.0777 15.9504 17.0777Z" fill="#BBBEDC"/><path d="M15.9504 13.6754H10.0851C9.74999 13.6754 9.47577 13.4037 9.47577 13.066C9.47577 12.7283 9.74745 12.4566 10.0851 12.4566H15.9504C16.2855 12.4566 16.5598 12.7283 16.5598 13.066C16.5598 13.4037 16.2881 13.6754 15.9504 13.6754Z" fill="#BBBEDC"/><path d="M12.3246 10.2832H10.0851C9.74999 10.2832 9.47577 10.0115 9.47577 9.67383C9.47577 9.33613 9.74745 9.06445 10.0851 9.06445H12.3246C12.6598 9.06445 12.934 9.33613 12.934 9.67383C12.934 10.0115 12.6598 10.2832 12.3246 10.2832Z" fill="#BBBEDC"/><path d="M9.67892 21.0945C9.56974 21.0945 9.45041 21.0895 9.33361 21.0793C8.25197 20.9879 7.26935 20.4801 6.56857 19.6524C5.86779 18.8221 5.53263 17.7684 5.62404 16.6893L5.6215 9.26505C5.60626 9.12794 5.60373 8.93751 5.61388 8.74708C5.7383 6.51016 7.67052 4.78106 9.89474 4.91309H16.0901C16.2856 4.90294 16.4811 4.90548 16.674 4.92071C17.7557 5.01212 18.7358 5.52247 19.4365 6.35274C20.1373 7.18301 20.4699 8.23673 20.3785 9.32091L20.3811 16.7426C20.3938 16.8797 20.3963 17.065 20.3861 17.2529C20.3277 18.3371 19.8479 19.3324 19.0404 20.0561C18.233 20.7797 17.1895 21.1428 16.1053 21.0869H9.8922C9.82619 21.092 9.75509 21.0945 9.67892 21.0945ZM9.69923 6.12423C8.17072 6.12423 6.91642 7.29981 6.83263 8.81309C6.82501 8.94512 6.82755 9.07969 6.83771 9.21172L6.84025 16.7375C6.70568 18.3524 7.87111 19.7336 9.43517 19.8631C9.57482 19.8732 9.71447 19.8758 9.85158 19.8682L16.1383 19.8656C16.9305 19.9063 17.6617 19.6524 18.2254 19.1445C18.7916 18.6367 19.1268 17.941 19.1674 17.1818C19.175 17.0498 19.1725 16.9203 19.1623 16.7883L19.1598 9.26251C19.2258 8.45255 18.9922 7.71368 18.5022 7.13223C18.0121 6.55079 17.324 6.19532 16.5674 6.1293C16.4252 6.11661 16.2856 6.11407 16.1434 6.12423H9.85919C9.80587 6.12676 9.75255 6.12423 9.69923 6.12423Z" fill="#BBBEDC"/></svg>
