<svg width="19" height="20" viewBox="0 0 19 20" fill="none" xmlns="http://www.w3.org/2000/svg"><path d="M7.14935 18.0667C7.35206 18.3707 7.6436 18.6232 7.99467 18.7987C8.34574 18.9743 8.74398 19.0667 9.14935 19.0667C9.55473 19.0667 9.95296 18.9743 10.304 18.7987C10.6551 18.6232 10.9466 18.3707 11.1494 18.0667" stroke="#99A1AF" stroke-width="1.8" stroke-linecap="round" stroke-linejoin="round"/><path d="M1.13952 13.1155C1.01977 13.2467 0.940746 13.41 0.912056 13.5853C0.883365 13.7606 0.906247 13.9405 0.977919 14.1031C1.04959 14.2657 1.16696 14.4039 1.31576 14.501C1.46455 14.5981 1.63835 14.6499 1.81602 14.65H16.4827C16.6603 14.6501 16.8342 14.5985 16.9831 14.5016C17.132 14.4047 17.2495 14.2666 17.3213 14.1041C17.3932 13.9417 17.4163 13.7618 17.3878 13.5865C17.3594 13.4111 17.2806 13.2478 17.161 13.1164C15.9419 11.8597 14.6494 10.5241 14.6494 6.39999C14.6494 4.9413 14.0699 3.54236 13.0384 2.51091C12.007 1.47946 10.608 0.899994 9.14935 0.899994C7.69066 0.899994 6.29172 1.47946 5.26027 2.51091C4.22882 3.54236 3.64935 4.9413 3.64935 6.39999C3.64935 10.5241 2.35594 11.8597 1.13952 13.1155Z" stroke="#99A1AF" stroke-width="1.8" stroke-linecap="round" stroke-linejoin="round"/></svg>
