<svg width="22" height="23" viewBox="0 0 22 23" fill="none" xmlns="http://www.w3.org/2000/svg">
<path fill-rule="evenodd" clip-rule="evenodd" d="M5.95833 0C6.55664 0 7.04167 0.485025 7.04167 1.08333V2.16667H14.625V1.08333C14.625 0.485025 15.11 0 15.7083 0C16.3066 0 16.7917 0.485025 16.7917 1.08333V2.19341C19.5289 2.46518 21.6667 4.7746 21.6667 7.58333V17.3333C21.6667 20.3249 19.2415 22.75 16.25 22.75H5.41667C2.42512 22.75 0 20.3249 0 17.3333V7.58333C0 4.7746 2.13778 2.46518 4.875 2.19341V1.08333C4.875 0.485025 5.36002 0 5.95833 0ZM2.3516 6.5H19.3151C18.8689 5.23771 17.6651 4.33333 16.25 4.33333H5.41667C4.0016 4.33333 2.79775 5.23771 2.3516 6.5ZM19.5 8.66667H2.16667V17.3333C2.16667 19.1283 3.62174 20.5833 5.41667 20.5833H16.25C18.0449 20.5833 19.5 19.1283 19.5 17.3333V8.66667ZM15.9327 10.609C16.3558 11.032 16.3558 11.718 15.9327 12.141L10.516 17.5577C10.093 17.9808 9.40704 17.9808 8.98397 17.5577L6.27563 14.8494C5.85257 14.4263 5.85257 13.7404 6.27563 13.3173C6.6987 12.8942 7.38463 12.8942 7.8077 13.3173L9.75 15.2596L14.4006 10.609C14.8237 10.1859 15.5096 10.1859 15.9327 10.609Z" fill="#1F1F1F"/>
</svg>
