<svg width="26" height="22" viewBox="0 0 26 22" fill="none" xmlns="http://www.w3.org/2000/svg">
<path d="M11.6417 0.574615C12.3914 0.0749818 13.3685 0.0752706 14.1183 0.574615L25.0411 7.85684C25.7098 8.30275 25.7312 9.26498 25.1085 9.74649V15.4906C25.1084 15.9876 24.7051 16.391 24.2081 16.391C23.7113 16.3909 23.3079 15.9875 23.3077 15.4906V10.9525L21.7179 12.0131L21.2198 16.0014C21.1126 16.8586 20.6283 17.6234 19.8995 18.0873L15.5099 20.8813C13.9055 21.9021 11.8545 21.9022 10.2501 20.8813L5.86047 18.0873C5.13186 17.6234 4.64733 16.8585 4.54016 16.0014L4.04211 12.0131L0.718872 9.79825C0.0269768 9.33648 0.0270384 8.31866 0.718872 7.85684L11.6417 0.574615ZM14.1183 17.0795C13.3684 17.5791 12.3915 17.5793 11.6417 17.0795L6.01965 13.3315L6.32629 15.7787C6.36703 16.1034 6.55122 16.393 6.82727 16.5688L11.2169 19.3627C12.2316 20.0083 13.5284 20.0081 14.5431 19.3627L18.9327 16.5688C19.2089 16.393 19.3929 16.1035 19.4337 15.7787L19.7394 13.3315L14.1183 17.0795ZM13.1202 2.07266C12.975 1.97608 12.785 1.97587 12.6398 2.07266L2.50793 8.82657L12.6398 15.5815C12.785 15.6783 12.9749 15.6782 13.1202 15.5815L23.2511 8.82657L13.1202 2.07266Z" fill="#99A1AF"/>
<path d="M11.6417 0.574615L11.5308 0.408192L11.5308 0.408208L11.6417 0.574615ZM14.1183 0.574615L14.2292 0.408208L14.2291 0.408154L14.1183 0.574615ZM25.0411 7.85684L25.1521 7.69045L25.1521 7.69043L25.0411 7.85684ZM25.1085 9.74649L24.9862 9.58828L24.9085 9.64833V9.74649H25.1085ZM25.1085 15.4906L25.3085 15.4907V15.4906H25.1085ZM24.2081 16.391L24.2081 16.591H24.2081L24.2081 16.391ZM23.3077 15.4906H23.1077V15.4907L23.3077 15.4906ZM23.3077 10.9525H23.5077V10.5787L23.1968 10.7862L23.3077 10.9525ZM21.7179 12.0131L21.6069 11.8467L21.5308 11.8975L21.5194 11.9883L21.7179 12.0131ZM21.2198 16.0014L21.4183 16.0262L21.4183 16.0262L21.2198 16.0014ZM19.8995 18.0873L20.0069 18.256L20.0069 18.256L19.8995 18.0873ZM15.5099 20.8813L15.6173 21.05L15.6173 21.05L15.5099 20.8813ZM10.2501 20.8813L10.1427 21.05L10.1427 21.05L10.2501 20.8813ZM5.86047 18.0873L5.75305 18.256L5.75308 18.256L5.86047 18.0873ZM4.54016 16.0014L4.3417 16.0262L4.34171 16.0262L4.54016 16.0014ZM4.04211 12.0131L4.24057 11.9883L4.22923 11.8974L4.15303 11.8467L4.04211 12.0131ZM0.718872 9.79825L0.607848 9.9646L0.607955 9.96467L0.718872 9.79825ZM0.718872 7.85684L0.607929 7.69043L0.607833 7.6905L0.718872 7.85684ZM14.1183 17.0795L14.2292 17.2459L14.2292 17.2459L14.1183 17.0795ZM11.6417 17.0795L11.5308 17.2459L11.5308 17.2459L11.6417 17.0795ZM6.01965 13.3315L6.13059 13.165L5.76685 12.9225L5.82121 13.3563L6.01965 13.3315ZM6.32629 15.7787L6.12785 15.8036L6.12785 15.8036L6.32629 15.7787ZM6.82727 16.5688L6.71984 16.7374L6.71988 16.7375L6.82727 16.5688ZM11.2169 19.3627L11.1095 19.5314L11.1095 19.5314L11.2169 19.3627ZM14.5431 19.3627L14.6504 19.5315L14.6505 19.5314L14.5431 19.3627ZM18.9327 16.5688L19.0401 16.7375L19.0401 16.7375L18.9327 16.5688ZM19.4337 15.7787L19.6322 15.8036L19.6322 15.8035L19.4337 15.7787ZM19.7394 13.3315L19.9378 13.3562L19.992 12.9226L19.6284 13.1651L19.7394 13.3315ZM13.1202 2.07266L13.2312 1.90625L13.231 1.90611L13.1202 2.07266ZM12.6398 2.07266L12.7507 2.23908L12.7507 2.23907L12.6398 2.07266ZM2.50793 8.82657L2.397 8.66015L2.14737 8.82656L2.39699 8.99298L2.50793 8.82657ZM12.6398 15.5815L12.5288 15.7479L12.5288 15.7479L12.6398 15.5815ZM13.1202 15.5815L13.231 15.7479L13.2312 15.7479L13.1202 15.5815ZM23.2511 8.82657L23.362 8.99297L23.6116 8.82656L23.362 8.66016L23.2511 8.82657ZM11.6417 0.574615L11.7526 0.741039C12.4351 0.286206 13.3247 0.286419 14.0074 0.741077L14.1183 0.574615L14.2291 0.408154C13.4123 -0.135877 12.3477 -0.136242 11.5308 0.408192L11.6417 0.574615ZM14.1183 0.574615L14.0073 0.741023L24.9302 8.02325L25.0411 7.85684L25.1521 7.69043L14.2292 0.408208L14.1183 0.574615ZM25.0411 7.85684L24.9302 8.02324C25.4836 8.39228 25.5021 9.18932 24.9862 9.58828L25.1085 9.74649L25.2309 9.9047C25.9603 9.34065 25.936 8.21321 25.1521 7.69045L25.0411 7.85684ZM25.1085 9.74649H24.9085V15.4906H25.1085H25.3085V9.74649H25.1085ZM25.1085 15.4906L24.9085 15.4906C24.9084 15.8771 24.5946 16.191 24.2081 16.191L24.2081 16.391L24.2081 16.591C24.8156 16.591 25.3084 16.098 25.3085 15.4907L25.1085 15.4906ZM24.2081 16.391L24.2082 16.191C23.8218 16.1909 23.5078 15.877 23.5077 15.4906L23.3077 15.4906L23.1077 15.4907C23.1079 16.098 23.6008 16.5908 24.2081 16.591L24.2081 16.391ZM23.3077 15.4906H23.5077V10.9525H23.3077H23.1077V15.4906H23.3077ZM23.3077 10.9525L23.1968 10.7862L21.6069 11.8467L21.7179 12.0131L21.8289 12.1795L23.4187 11.1189L23.3077 10.9525ZM21.7179 12.0131L21.5194 11.9883L21.0214 15.9766L21.2198 16.0014L21.4183 16.0262L21.9164 12.0379L21.7179 12.0131ZM21.2198 16.0014L21.0214 15.9766C20.9216 16.7746 20.4707 17.4867 19.7921 17.9186L19.8995 18.0873L20.0069 18.256C20.7859 17.7602 21.3037 16.9426 21.4183 16.0262L21.2198 16.0014ZM19.8995 18.0873L19.7921 17.9186L15.4025 20.7125L15.5099 20.8813L15.6173 21.05L20.0069 18.256L19.8995 18.0873ZM15.5099 20.8813L15.4025 20.7125C13.8636 21.6917 11.8963 21.6918 10.3575 20.7125L10.2501 20.8813L10.1427 21.05C11.8126 22.1126 13.9473 22.1125 15.6173 21.05L15.5099 20.8813ZM10.2501 20.8813L10.3575 20.7125L5.96786 17.9186L5.86047 18.0873L5.75308 18.256L10.1427 21.05L10.2501 20.8813ZM5.86047 18.0873L5.96789 17.9186C5.28947 17.4866 4.83838 16.7745 4.73862 15.9766L4.54016 16.0014L4.34171 16.0262C4.45628 16.9425 4.97425 17.7601 5.75305 18.256L5.86047 18.0873ZM4.54016 16.0014L4.73862 15.9766L4.24057 11.9883L4.04211 12.0131L3.84366 12.0379L4.3417 16.0262L4.54016 16.0014ZM4.04211 12.0131L4.15303 11.8467L0.82979 9.63182L0.718872 9.79825L0.607955 9.96467L3.9312 12.1795L4.04211 12.0131ZM0.718872 9.79825L0.829896 9.63189C0.256655 9.24931 0.256672 8.40584 0.829911 8.02319L0.718872 7.85684L0.607833 7.6905C-0.202595 8.23148 -0.202702 9.42364 0.607848 9.9646L0.718872 9.79825ZM0.718872 7.85684L0.829816 8.02325L11.7527 0.741023L11.6417 0.574615L11.5308 0.408208L0.607929 7.69043L0.718872 7.85684ZM14.1183 17.0795L14.0074 16.9131C13.3246 17.368 12.4352 17.3681 11.7527 16.9131L11.6417 17.0795L11.5308 17.2459C12.3478 17.7905 13.4122 17.7903 14.2292 17.2459L14.1183 17.0795ZM11.6417 17.0795L11.7527 16.9131L6.13059 13.165L6.01965 13.3315L5.90871 13.4979L11.5308 17.2459L11.6417 17.0795ZM6.01965 13.3315L5.82121 13.3563L6.12785 15.8036L6.32629 15.7787L6.52474 15.7539L6.2181 13.3066L6.01965 13.3315ZM6.32629 15.7787L6.12785 15.8036C6.17605 16.1878 6.39387 16.5299 6.71984 16.7374L6.82727 16.5688L6.93471 16.4001C6.70857 16.256 6.55801 16.0191 6.52474 15.7538L6.32629 15.7787ZM6.82727 16.5688L6.71988 16.7375L11.1095 19.5314L11.2169 19.3627L11.3243 19.194L6.93466 16.4L6.82727 16.5688ZM11.2169 19.3627L11.1095 19.5314C12.1897 20.2188 13.5702 20.2185 14.6504 19.5315L14.5431 19.3627L14.4358 19.1939C13.4865 19.7977 12.2734 19.7979 11.3243 19.194L11.2169 19.3627ZM14.5431 19.3627L14.6505 19.5314L19.0401 16.7375L18.9327 16.5688L18.8253 16.4L14.4357 19.194L14.5431 19.3627ZM18.9327 16.5688L19.0401 16.7375C19.3662 16.5299 19.5839 16.1878 19.6322 15.8036L19.4337 15.7787L19.2353 15.7538C19.202 16.0191 19.0515 16.2561 18.8253 16.4L18.9327 16.5688ZM19.4337 15.7787L19.6322 15.8035L19.9378 13.3562L19.7394 13.3315L19.5409 13.3067L19.2353 15.7539L19.4337 15.7787ZM19.7394 13.3315L19.6284 13.1651L14.0073 16.9131L14.1183 17.0795L14.2292 17.2459L19.8503 13.4979L19.7394 13.3315ZM13.1202 2.07266L13.231 1.90611C13.0188 1.76505 12.7414 1.76456 12.5288 1.90625L12.6398 2.07266L12.7507 2.23907C12.8285 2.18719 12.9311 2.18711 13.0095 2.23922L13.1202 2.07266ZM12.6398 2.07266L12.5288 1.90625L2.397 8.66015L2.50793 8.82657L2.61887 8.99298L12.7507 2.23908L12.6398 2.07266ZM2.50793 8.82657L2.39699 8.99298L12.5288 15.7479L12.6398 15.5815L12.7507 15.415L2.61888 8.66016L2.50793 8.82657ZM12.6398 15.5815L12.5288 15.7479C12.7414 15.8896 13.0187 15.8893 13.231 15.7479L13.1202 15.5815L13.0094 15.415C12.9311 15.4671 12.8287 15.467 12.7507 15.415L12.6398 15.5815ZM13.1202 15.5815L13.2312 15.7479L23.362 8.99297L23.2511 8.82657L23.1401 8.66017L13.0093 15.415L13.1202 15.5815ZM23.2511 8.82657L23.362 8.66016L13.2312 1.90625L13.1202 2.07266L13.0093 2.23907L23.1402 8.99298L23.2511 8.82657Z" fill="#99A1AF"/>
</svg>
